<?xml version="1.0" encoding="utf-8"?>
<!-- Generator: Adobe Illustrator 27.7.0, SVG Export Plug-In . SVG Version: 6.00 Build 0)  -->
<svg version="1.1" id="Layer_1" xmlns="http://www.w3.org/2000/svg" xmlns:xlink="http://www.w3.org/1999/xlink" x="0px" y="0px"
	 viewBox="0 0 32 32" style="enable-background:new 0 0 32 32;" xml:space="preserve">
<style type="text/css">
	.st0{fill:#56BE8D;}
	.st1{fill:#FFFFFF;}
</style>
<path class="st0" d="M16,0c1.05,0,2.09,0.1,3.12,0.31s2.03,0.51,3,0.91c0.97,0.4,1.89,0.89,2.77,1.48s1.68,1.25,2.42,1.99
	s1.41,1.55,1.99,2.42c0.58,0.87,1.08,1.8,1.48,2.77c0.4,0.97,0.71,1.97,0.91,3S32,14.95,32,16c0,1.05-0.1,2.09-0.31,3.12
	s-0.51,2.03-0.91,3s-0.89,1.89-1.48,2.77c-0.58,0.87-1.25,1.68-1.99,2.42c-0.74,0.74-1.55,1.41-2.42,1.99
	c-0.87,0.58-1.8,1.08-2.77,1.48c-0.97,0.4-1.97,0.71-3,0.91S17.05,32,16,32c-1.05,0-2.09-0.1-3.12-0.31s-2.03-0.51-3-0.91
	c-0.97-0.4-1.89-0.89-2.77-1.48c-0.87-0.58-1.68-1.25-2.42-1.99c-0.74-0.74-1.41-1.55-1.99-2.42c-0.58-0.87-1.08-1.8-1.48-2.77
	s-0.71-1.97-0.91-3S0,17.05,0,16c0-1.05,0.1-2.09,0.31-3.12s0.51-2.03,0.91-3c0.4-0.97,0.89-1.89,1.48-2.77
	c0.58-0.87,1.25-1.68,1.99-2.42S6.24,3.28,7.11,2.7s1.8-1.08,2.77-1.48c0.97-0.4,1.97-0.71,3-0.91S14.95,0,16,0z"/>
<path class="st1" d="M18.6,17.65h-1.95V15.7c0-0.36-0.29-0.65-0.65-0.65c-0.36,0-0.65,0.29-0.65,0.65v1.95H13.4
	c-0.36,0-0.65,0.29-0.65,0.65s0.29,0.65,0.65,0.65h1.95v1.95c0,0.36,0.29,0.65,0.65,0.65c0.36,0,0.65-0.29,0.65-0.65v-1.95h1.95
	c0.36,0,0.65-0.29,0.65-0.65S18.96,17.65,18.6,17.65z"/>
<path class="st1" d="M22,23.8H10c-0.99,0-1.8-0.81-1.8-1.8v-9h15.6v9C23.8,22.99,22.99,23.8,22,23.8z M10,9.4V10
	c0,0.33,0.27,0.6,0.6,0.6s0.6-0.27,0.6-0.6V9.4h4.2V10c0,0.33,0.27,0.6,0.6,0.6c0.33,0,0.6-0.27,0.6-0.6V9.4h4.2V10
	c0,0.33,0.27,0.6,0.6,0.6S22,10.33,22,10V9.4c0.99,0,1.8,0.81,1.8,1.8v0.6H8.2v-0.6C8.2,10.21,9.01,9.4,10,9.4L10,9.4z M22,8.2V7.6
	C22,7.27,21.73,7,21.4,7s-0.6,0.27-0.6,0.6v0.6h-4.2V7.6C16.6,7.27,16.33,7,16,7c-0.33,0-0.6,0.27-0.6,0.6v0.6h-4.2V7.6
	c0-0.33-0.27-0.6-0.6-0.6S10,7.27,10,7.6v0.6c-1.66,0-3,1.34-3,3V22c0,1.66,1.34,3,3,3h12c1.66,0,3-1.34,3-3V11.2
	C25,9.54,23.66,8.2,22,8.2L22,8.2z"/>
</svg>
