<?xml version="1.0" encoding="UTF-8"?>
<svg id="Layer_1" data-name="Layer 1" xmlns="http://www.w3.org/2000/svg" viewBox="0 0 38 33">
  <defs>
    <style>
      .cls-1 {
        fill: #fff;
      }

      .cls-2 {
        fill: #f9f21c;
      }
    </style>
  </defs>
  <path class="cls-2" d="M37.67,29.39L20.99,1.15c-.42-.71-1.18-1.15-1.99-1.15s-1.57,.44-1.99,1.15L.33,29.39c-.43,.73-.45,1.65-.03,2.4,.41,.75,1.19,1.21,2.03,1.21H35.67c.84,0,1.61-.46,2.03-1.21,.41-.75,.4-1.66-.03-2.4Z"/>
  <path class="cls-1" d="M19.04,29.08c-1.11,0-1.94-.93-1.94-1.98s.83-1.98,1.94-1.98c1.03,0,1.91,.9,1.91,1.98s-.88,1.98-1.91,1.98Zm-.03-18.94c.98,0,1.81,.57,1.81,1.57,0,3.06-.35,7.45-.35,10.51,0,.8-.86,1.13-1.46,1.13-.81,0-1.48-.33-1.48-1.13,0-3.06-.35-7.45-.35-10.51,0-1,.81-1.57,1.84-1.57Z"/>
</svg>