<svg xmlns="http://www.w3.org/2000/svg" width="72" height="72" viewBox="0 0 72 72"><path d="M36,0A36,36,0,1,0,72,36,36,36,0,0,0,36,0ZM16.725,50.329,5.966,45.539l1.716-3.854,3.971,1.768A25.511,25.511,0,0,1,18,18a25.226,25.226,0,0,1,14.594-7.228A25.644,25.644,0,0,1,48.289,13.7l-2.038,3.694a21.4,21.4,0,0,0-13.1-2.441,21.043,21.043,0,0,0-12.173,6.03A21.284,21.284,0,0,0,15.7,42.26l1.961-4.405,3.854,1.716ZM60.347,28.548A25.511,25.511,0,0,1,54,54a25.371,25.371,0,0,1-17.962,7.453A25.621,25.621,0,0,1,23.711,58.3l2.038-3.694a21.394,21.394,0,0,0,13.1,2.441,21.043,21.043,0,0,0,12.173-6.03A21.284,21.284,0,0,0,56.3,29.741l-1.961,4.406L50.485,32.43l4.79-10.759,10.759,4.79-1.716,3.854Z" fill="#0edc96"/></svg>